<?xml version="1.0" encoding="utf-8"?>
<!-- Generator: Adobe Illustrator 22.0.0, SVG Export Plug-In . SVG Version: 6.00 Build 0)  -->
<svg version="1.1" id="Capa_1" xmlns="http://www.w3.org/2000/svg" xmlns:xlink="http://www.w3.org/1999/xlink" x="0px" y="0px"
	 viewBox="0 0 226.8 340.2" style="enable-background:new 0 0 226.8 340.2;" xml:space="preserve">
<style type="text/css">
	.st0{fill:#F9CCB4;stroke:#402C1E;stroke-width:2.7785;stroke-linecap:round;stroke-linejoin:round;stroke-miterlimit:10;}
	.st1{fill:none;stroke:#402C1E;stroke-width:1.3892;stroke-linecap:round;stroke-linejoin:round;stroke-miterlimit:10;}
	.st2{fill:#73B991;stroke:#402C1E;stroke-width:2.7785;stroke-linecap:round;stroke-linejoin:round;stroke-miterlimit:10;}
	.st3{fill:#FFE400;stroke:#402C1E;stroke-width:1.6913;stroke-linecap:round;stroke-linejoin:round;stroke-miterlimit:10;}
	.st4{fill:none;stroke:#402C1E;stroke-width:1.6913;stroke-linecap:round;stroke-linejoin:round;stroke-miterlimit:10;}
	.st5{fill:#73B991;stroke:#402C1E;stroke-width:1.3892;stroke-linecap:round;stroke-linejoin:round;stroke-miterlimit:10;}
	.st6{fill:#F9CCB4;stroke:#402C1E;stroke-width:1.3892;stroke-linecap:round;stroke-linejoin:round;stroke-miterlimit:10;}
	.st7{fill:none;stroke:#402C1E;stroke-width:2.7785;stroke-linecap:round;stroke-linejoin:round;stroke-miterlimit:10;}
	.st8{fill:#402C1E;stroke:#402C1E;stroke-width:0.8472;stroke-linecap:round;stroke-linejoin:round;stroke-miterlimit:10;}
	.st9{fill:#FFE400;stroke:#402C1E;stroke-width:2.7785;stroke-linecap:round;stroke-linejoin:round;stroke-miterlimit:10;}
	.st10{fill:#F2998B;}
	.st11{fill:none;stroke:#402C1E;stroke-width:2.1141;stroke-linecap:round;stroke-linejoin:round;stroke-miterlimit:10;}
	.st12{fill:#402C1E;stroke:#402C1E;stroke-width:1.327;stroke-linecap:round;stroke-linejoin:round;stroke-miterlimit:10;}
	.st13{fill:#73B991;}
	.st14{fill:#402C1E;}
	.st15{fill:#FFE400;}
	.st16{fill:#FFFFFF;}
	.st17{fill:#402C1E;stroke:#402C1E;stroke-width:2.1141;stroke-linecap:round;stroke-linejoin:round;stroke-miterlimit:10;}
</style>
<g>
	<path id="XMLID_16512_" class="st0" d="M139.4,80c0,0,0.1,0.1,0.2,0.3c-6.9-6.1-15.4-10.1-24.6-11.2c-1.6-0.2-2.2-6.5-5.1-6.6
		c-3-0.1-3.1,6.4-4.8,6.6c-24,2.8-42.7,25.6-42.7,53.3c0,0.1,0,0.1,0,0.2c0.1-0.2,0.1-0.3,0.2-0.5c0,0.8-0.1,1.7-0.1,2.5
		c0,5.2,0.9,10.2,2.6,14.8l-0.7-1.6c0,0-3.9-4.6-7.7-1c-4,3.7,1.4,12,12.3,10.8l-0.8-1.7c0.3,0.6,0.7,1.1,1,1.7
		c-1.3,2.6-1.9,5.3-1.9,8.2c0,9.7,7.8,18.1,19.5,23.1c-1.7,4.4-2.9,10.2-2.2,17.5l0.6,4.8c-7.9,2.9-14.6,6.3-14.6,6.3
		s-3.6-6.2-6.5-6c-2.9,0.2,1.9,13.1,1.9,13.1l43.8-0.2c0,0,0.1-0.2,0.1-0.6c0.1,0,0.2,0,0.3,0c0.1,0.3,0.1,0.6,0.1,0.6l41.9,0.2
		c1.2,0,2.2-0.7,2.6-1.8c1.2-3.6,3.5-11.1,1.3-11.3c-2.9-0.2-6.5,6-6.5,6s-6.7-3.4-14.6-6.3l0.6-4.8c0.7-7.3-0.5-13-2.2-17.4
		c11.8-4.9,19.6-13.4,19.6-23.1c0-2.9-0.7-5.6-1.9-8.2c0.2-0.3,0.3-0.5,0.5-0.8l-0.4,0.8c10.9,1.3,16.3-7,12.3-10.8
		c-3.9-3.6-7.7,1-7.7,1l-0.3,0.6c1.5-4.4,2.3-9.1,2.3-13.9c0-0.5,0-1.1,0-1.6c0,0,0,0,0,0c0-0.2,0-0.4,0-0.6
		c0-14.6-5.2-27.8-13.6-37.5L139.4,80z"/>
	<path id="XMLID_16510_" class="st0" d="M92.7,197.3c0,0.4,0,0.8,0.1,1.2c-0.1,0-0.2,0.1-0.3,0.1L92.7,197.3z"/>
	<path id="XMLID_16509_" class="st0" d="M127,198.3c0.1-0.7,0.2-1.4,0.3-2l0.4,2.2C127.4,198.5,127.2,198.4,127,198.3z"/>
	<g id="XMLID_16505_">
		<path id="XMLID_16507_" class="st1" d="M110.4,214.2l41.9,0.2c1.2,0,2.2-0.7,2.6-1.8c1.2-3.6,3.5-11.1,1.3-11.3
			c-2.9-0.2-6.5,6-6.5,6s-21.3-10.8-32.5-10.5C105.9,197,110.4,214.2,110.4,214.2z"/>
		<path id="XMLID_16506_" class="st1" d="M109.8,214.2L66,214.5c0,0-4.8-12.9-1.9-13.1c2.9-0.2,6.5,6,6.5,6s21.3-10.8,32.5-10.5
			C114.3,197,109.8,214.2,109.8,214.2z"/>
	</g>
	<path id="XMLID_16504_" class="st1" d="M110.1,197.6"/>
	<g id="XMLID_16489_">
		<g id="XMLID_16497_">
			<path id="XMLID_16503_" class="st2" d="M139.4,80c0,0,11.7,18.7,32.3-0.4C171.7,79.6,155.8,59.2,139.4,80z"/>
			<g id="XMLID_16498_">
				<line id="XMLID_16502_" class="st1" x1="139.4" y1="80" x2="161.7" y2="79.5"/>
				<g id="XMLID_16500_">
					<polyline id="XMLID_16501_" class="st1" points="158.5,76.2 154.3,79.9 157.9,83.6 					"/>
				</g>
				<polyline id="XMLID_16499_" class="st1" points="151.9,75.5 147.5,79.9 151.1,83.8 				"/>
			</g>
		</g>
		<g id="XMLID_16490_">
			<path id="XMLID_16496_" class="st2" d="M138.8,79.3c0,0-18.7-11.7,0.4-32.3C139.2,47,159.5,62.9,138.8,79.3z"/>
			<g id="XMLID_16491_">
				<line id="XMLID_16495_" class="st1" x1="138.8" y1="79.3" x2="139.2" y2="57.1"/>
				<g id="XMLID_16493_">
					<polyline id="XMLID_16494_" class="st1" points="142.5,60.3 138.8,64.4 135.1,60.8 					"/>
				</g>
				<polyline id="XMLID_16492_" class="st1" points="143.2,66.9 138.8,71.2 135,67.7 				"/>
			</g>
		</g>
	</g>
	<g id="XMLID_16478_">
		<g id="XMLID_16486_">
			<g id="XMLID_16487_">
				<path id="XMLID_16488_" class="st3" d="M92.8,194.1c0,0,30.9,0.3,34.6,0c0,0-0.2,19.5-16.6,19.6
					C90.2,213.9,92.8,194.1,92.8,194.1z"/>
			</g>
		</g>
		<g id="XMLID_16484_">
			<polyline id="XMLID_16485_" class="st1" points="99.3,194.3 101,199.9 94.3,203.2 			"/>
		</g>
		<g id="XMLID_16482_">
			<polyline id="XMLID_16483_" class="st4" points="99.3,194.3 101,199.9 94.3,203.2 			"/>
		</g>
		<polyline id="XMLID_16481_" class="st4" points="120.1,194.2 118.2,199.9 124.9,203.2 		"/>
		<path id="XMLID_16480_" class="st5" d="M120.2,201.8h-3.4c-0.9,0-1.6-0.7-1.6-1.6v-0.4c0-0.9,0.7-1.6,1.6-1.6h3.4
			c0.9,0,1.6,0.7,1.6,1.6v0.4C121.7,201,121,201.8,120.2,201.8z"/>
		<path id="XMLID_16479_" class="st5" d="M98.7,201.8h3.4c0.9,0,1.6-0.7,1.6-1.6v-0.4c0-0.9-0.7-1.6-1.6-1.6h-3.4
			c-0.9,0-1.6,0.7-1.6,1.6v0.4C97.2,201,97.9,201.8,98.7,201.8z"/>
	</g>
	<g id="XMLID_16473_">
		<g id="XMLID_16476_">
			<path id="XMLID_16477_" class="st6" d="M133,179.5c1.6,4.3,2.5,9.8,1.9,16.7l-1.2,9.6c0,0,6.4,1.8,4.9,3.1
				c-1.5,1.3-4.9-0.9-4.9-0.9s4,3,2.7,4c-1.2,1-4.3-2.4-4.3-2.4s1.8,4,0.3,4.4c-1.5,0.4-2.8-4.1-2.8-4.1s-3,3.2-3.8,2
				c-0.8-1.3,2.6-4.6,2.6-4.6l-4.4-25.3"/>
		</g>
		<g id="XMLID_16474_">
			<path id="XMLID_16475_" class="st6" d="M86.9,179.4c-1.6,4.3-2.6,9.9-1.9,16.8l1.2,9.6c0,0-6.4,1.8-4.9,3.1
				c1.5,1.3,4.9-0.9,4.9-0.9s-4,3-2.7,4c1.2,1,4.3-2.4,4.3-2.4s-1.8,4-0.3,4.4c1.5,0.4,2.8-4.1,2.8-4.1s3,3.2,3.8,2
				c0.8-1.3-2.6-4.6-2.6-4.6l4.4-25.3"/>
		</g>
	</g>
	<path id="XMLID_16472_" class="st7" d="M157.8,124.5c0-24.9-21.3-45.2-47.6-45.2s-47.6,20.2-47.6,45.2c0,8.4,2.4,16.3,6.6,23
		c-1.3,2.6-1.9,5.3-1.9,8.2c0,15.2,19.2,27.5,42.9,27.5s42.9-12.3,42.9-27.5c0-2.9-0.7-5.6-1.9-8.2
		C155.4,140.8,157.8,132.9,157.8,124.5z"/>
	<path id="XMLID_16471_" class="st8" d="M103.4,98.3c-3.7,0.9-4.4,6.1-4.1,9.7s2.7,6.9,6,8.5c2,1,4.3,1.4,6.5,0.9s4.1-2.2,4.6-4.3
		s-0.8-4.3-2.8-5.2c-2.2-1-5.3,0.3-5.1,2.9c0-1.2,2-1.6,2.7-1.1c1,0.7,0.9,2.3,0,3.1s-2.3,1-3.4,0.6c-1.1-0.4-2-1.2-2.4-2.2
		c-0.7-1.4-0.4-3.1,0.5-4.5c0.8-1.4,2.1-2.4,3.5-3.3c4.7-2.8,10.6-3.9,15.7-2.3C125.2,101.2,119.2,94.4,103.4,98.3z"/>
	<g id="XMLID_16469_">
		<path id="XMLID_16470_" class="st9" d="M157.8,122.9c0-0.2,0-0.4,0-0.6c0-27.7-18.8-50.5-42.8-53.3c-1.6-0.2-2.2-6.5-5.1-6.6
			c-3-0.1-3.1,6.4-4.8,6.6c-24,2.8-42.7,25.6-42.7,53.3c0,0.1,0,0.1,0,0.2C70.1,98.9,126.2,81.4,157.8,122.9z"/>
	</g>
	<g id="XMLID_16466_">
		<path id="XMLID_16468_" class="st1" d="M58.9,140.5c0,0-0.1-1.6,1.8-1.6c2.5,0,5.4,3.3,5.4,3.3"/>
		<path id="XMLID_16467_" class="st1" d="M64.7,140.9c0,0-2,0.6-1.5,2.2c0.5,1.4,3.4,0.9,3.4,0.9"/>
	</g>
	<g id="XMLID_16463_">
		<path id="XMLID_16465_" class="st1" d="M161.2,140.5c0,0,0.1-1.6-1.8-1.6c-2.5,0-5.4,3.3-5.4,3.3"/>
		<path id="XMLID_16464_" class="st1" d="M155.4,140.9c0,0,2,0.6,1.5,2.2c-0.5,1.4-3.4,0.9-3.4,0.9"/>
	</g>
	<g id="XMLID_16460_">
		<circle id="XMLID_16462_" class="st10" cx="131.4" cy="164.3" r="4.4"/>
		<circle id="XMLID_16461_" class="st10" cx="88.8" cy="164.3" r="4.4"/>
	</g>
	<path id="XMLID_16459_" class="st11" d="M86.6,150c0-2.5,2-4.5,4.5-4.5s4.5,2,4.5,4.5"/>
	<g id="XMLID_16457_">
		<line id="XMLID_16458_" class="st11" x1="86.7" y1="148.6" x2="84.1" y2="147.7"/>
	</g>
	<path id="XMLID_16456_" class="st11" d="M133.6,150c0-2.5-2-4.5-4.5-4.5c-2.5,0-4.5,2-4.5,4.5"/>
	<g id="XMLID_16454_">
		<line id="XMLID_16455_" class="st11" x1="133.5" y1="148.6" x2="136.1" y2="147.7"/>
	</g>
	<path id="XMLID_16453_" class="st11" d="M106.7,153.9c0-1.9,1.5-3.4,3.4-3.4s3.4,1.5,3.4,3.4"/>
	<g>
		<circle id="XMLID_16452_" class="st12" cx="110.8" cy="83.9" r="0.7"/>
		<g id="XMLID_16442_">
			<circle id="XMLID_16451_" class="st12" cx="115.3" cy="77" r="0.7"/>
			<circle id="XMLID_16450_" class="st12" cx="120.6" cy="86.9" r="0.7"/>
			<circle id="XMLID_16449_" class="st12" cx="116.1" cy="92.5" r="0.7"/>
			<circle id="XMLID_16448_" class="st12" cx="127.4" cy="81.6" r="0.7"/>
			<circle id="XMLID_16447_" class="st12" cx="135" cy="87" r="0.7"/>
			<circle id="XMLID_16446_" class="st12" cx="136.1" cy="96.2" r="0.7"/>
			<circle id="XMLID_16445_" class="st12" cx="144.5" cy="97.9" r="0.7"/>
			<circle id="XMLID_16444_" class="st12" cx="148.6" cy="106.1" r="0.7"/>
			<circle id="XMLID_16443_" class="st12" cx="127.9" cy="92.2" r="0.7"/>
		</g>
		<g id="XMLID_16390_">
			<circle id="XMLID_16441_" class="st12" cx="104" cy="77" r="0.7"/>
			<circle id="XMLID_16440_" class="st12" cx="99.1" cy="85.3" r="0.7"/>
			<circle id="XMLID_16404_" class="st12" cx="104" cy="91.4" r="0.7"/>
			<circle id="XMLID_16402_" class="st12" cx="92" cy="81.6" r="0.7"/>
			<circle id="XMLID_16395_" class="st12" cx="84.4" cy="87" r="0.7"/>
			<circle id="XMLID_16394_" class="st12" cx="83.3" cy="96.2" r="0.7"/>
			<circle id="XMLID_16393_" class="st12" cx="74.9" cy="97.9" r="0.7"/>
			<circle id="XMLID_16392_" class="st12" cx="70.8" cy="106.1" r="0.7"/>
			<circle id="XMLID_16391_" class="st12" cx="91.5" cy="92.2" r="0.7"/>
		</g>
	</g>
	<g>
		<g>
			<path class="st13" d="M66.7,291c0-0.1,0-0.3,0-0.5c0-0.2,0-0.5,0-0.7c0-0.3,0-0.6,0-1c0-0.1,0-0.7,0-0.8c0-0.1-0.1-0.1-0.2-0.1
				c-0.1,0-0.3,0-0.4,0c-0.1,0-0.5,0-0.6,0.1c-0.1,0.1,0,0.8,0,1l0,0.8c0,0.2,0.1,0.5,0.1,0.7c0,0.1,0,0.5-0.1,0.6
				c-0.1,0.1-0.2,0-0.4,0.1c-0.1,0-0.1,0-0.3,0c-0.2,0-0.6,0.1-0.7-0.1c-0.1-0.1,0-0.3,0-0.5c0-0.2,0-0.4,0-0.6c0-0.3,0-0.6,0-1
				c0-0.3,0-0.5,0-0.8c0-0.4,0-0.8,0-1.1c0-0.5,0.1-0.8,0.1-1.2c0.1-0.4,0.1-0.7,0.1-1.1c0-0.4-0.1-0.7,0.3-0.7
				c0.2,0,0.2,0.1,0.4,0.1l0.2,0.1c0.2,0.1,0.2-0.1,0.4,0.3c0.1,0.3,0,0.5,0,0.9c0,0.2,0,0.3,0,0.6c-0.1,0.4,0.1,0.7,0,1.1
				c0,0.1-0.1,0.3,0.1,0.3c0.2,0,0.4-0.1,0.7-0.1h0c0.1,0,0.4,0,0.4-0.1l0,0c0-0.1,0-0.2,0-0.3c0-0.5,0-1,0.1-1.6l0.1-0.9
				c0-0.1,0-0.3,0-0.4c0-0.2,0.1-0.2,0.3-0.2c0.3,0,0.7,0.2,0.8,0.4c0.1,0.3,0.1,0.9,0,1.2c0,0.3,0,0.5-0.1,0.8c0,0.2,0,0.4,0,0.6
				c0,0.5,0,1-0.1,1.4c0,0.3,0,0.5-0.1,0.8c0,0.2,0,0.4,0,0.6c0,0.2,0,0.3,0,0.5c0,0.1,0,0.2,0,0.3c0,0.1-0.1,0.4-0.1,0.5
				c0,0.1-0.2,0.1-0.3,0.1C67.2,291.2,66.7,291.3,66.7,291z"/>
			<path class="st13" d="M68.5,288.1c0-0.6,0.2-1,0.6-1.5c0.1-0.1,0.3-0.2,0.4-0.3c0.4-0.3,0.8-0.4,1.3-0.4c0.6,0,1.1,0.4,1.1,1
				c0,0.2,0,0.3-0.1,0.4c-0.1,0.2-0.1,0.3-0.3,0.5c-0.3,0.3-0.3,0.3-0.8,0.4c-0.1,0-0.6,0.1-0.7,0.1c-0.1,0,0,0.3,0,0.4
				c0.1,0.5,0.3,0.9,0.9,0.9c0.3,0,0.5-0.2,0.8-0.5c0.3-0.3,0.5-0.7,0.7-1c0.1-0.1,0.1-0.2,0.2-0.3c0.1-0.1,0.1-0.2,0.2-0.3
				c0.1-0.2,0.5-0.1,0.6,0.1c0,0.1,0,0.2-0.1,0.3c-0.1,0.1-0.1,0.2-0.1,0.3c-0.1,0.2-0.2,0.3-0.3,0.4c-0.2,0.3-0.6,0.9-0.9,1
				c-0.2,0.2-0.6,0.4-0.9,0.5c-0.3,0.1-0.9,0-1.1,0c-0.2-0.1-0.3-0.1-0.5-0.2c-0.2-0.1-0.4-0.3-0.5-0.5
				C68.5,289,68.5,288.5,68.5,288.1z M70.8,287.1c0.1-0.2,0.4-0.6,0.2-0.8c-0.1-0.1-0.2-0.1-0.3-0.1c-0.2,0-0.3,0.2-0.4,0.3
				c-0.2,0.2-0.3,0.4-0.4,0.6c-0.1,0.2-0.1,0.6-0.1,0.8c0,0.1,0.3-0.1,0.3-0.1C70.5,287.6,70.6,287.4,70.8,287.1z"/>
			<path class="st13" d="M76.7,287.6c0.1-0.2,0.2-0.4,0.4-0.3c0.2,0.1,0.2,0.2,0.1,0.3c-0.1,0.2-0.1,0.3-0.2,0.5
				c-0.1,0.2-0.1,0.4-0.3,0.6c-0.2,0.4-0.3,0.5-0.6,0.8c-0.1,0.1-0.2,0.2-0.3,0.3c-0.3,0.2-0.5,0.3-0.9,0.4c-0.2,0-0.4,0.1-0.6,0.1
				h-0.1c-0.4,0-0.6,0-1-0.2c-0.1,0-0.2-0.1-0.3-0.1c-0.4-0.2-0.7-0.7-0.8-1.1c-0.1-0.2-0.1-0.5-0.1-0.7c0-0.4,0-0.8,0.1-1.1
				c0.1-0.3,0.2-0.5,0.4-0.8c0.3-0.5,1.3-0.7,1.7-0.6c0.2,0.1,0.4,0.1,0.7,0.2c0.3,0.1,0.3,0.2,0.4,0.4c0.1,0.3,0.1,0.8-0.2,1
				c-0.1,0.1-0.3,0.1-0.4,0c-0.1-0.1,0.1-0.3,0.1-0.4c0-0.1,0-0.5-0.1-0.5c-0.2,0-0.5,0.1-0.6,0.3c-0.2,0.2-0.4,0.9-0.4,1.1
				c-0.1,0.3,0,1.1,0.2,1.4c0.2,0.3,0.5,0.5,0.9,0.4c0.3,0,0.4-0.1,0.7-0.3c0.4-0.3,0.6-0.7,0.9-1C76.5,288.1,76.6,287.9,76.7,287.6
				z"/>
			<path class="st13" d="M80.6,288.6c0,0.1-0.1,0.3-0.2,0.4c-0.1,0.2-0.2,0.3-0.3,0.5c-0.1,0.2-0.2,0.3-0.2,0.5
				c-0.2,0.5-0.5,0.8-1.1,0.7c-0.5-0.1-0.6-0.3-0.7-0.8c0-0.2,0-0.3,0-0.5c0-0.3,0.2-0.9,0.2-1.2c0.1-0.5-0.4,0.3-0.5,0.4
				c-0.2,0.2-0.3,0.4-0.4,0.7l-0.2,0.4c-0.1,0.2-0.1,0.3-0.2,0.4c-0.1,0.3-0.2,0.1-0.5,0.2c-0.2,0-0.2,0-0.3-0.1
				c-0.1-0.1-0.2-0.2-0.2-0.4c0-0.2,0-0.3,0-0.5c0-0.3,0-0.5,0-0.8c0-0.2,0.1-0.9,0.1-1c0-0.3,0-0.4,0-0.7c0.1-0.3,0.1-0.6,0.2-0.9
				c0.1-0.6,0.5-1.1,0.8-1.6c0.1-0.2,0.2-0.3,0.4-0.5c0.2-0.2,0.3-0.1,0.5-0.1c0.3,0,0.6,0,0.8,0.3c0.1,0.1,0.2,0.4,0.2,0.6
				c0,0.4,0.1,1.2-0.3,1.7c-0.4,0.6-1,1.3-1.7,1.6c-0.1,0-0.1,0.5-0.1,0.8c0,0.3,0.2,0,0.2-0.1c0.2-0.3,0.7-1,1.1-1.1
				c0.4-0.1,0.6,0.1,0.7,0.4c0.1,0.2,0.1,0.5,0.1,0.7c0,0.1,0,1,0.1,1.1c0.1,0,0.2-0.3,0.3-0.4c0.1-0.2,0.2-0.4,0.3-0.7
				c0.1-0.3,0.3-0.5,0.4-0.9c0-0.1,0.1-0.4,0.3-0.4h0l0,0c0.2,0,0.1,0.1,0.2,0.3C80.8,287.9,80.7,288.4,80.6,288.6z M77.1,286.7
				c0,0.1,0.1,0.1,0.1,0c0.3-0.3,0.8-0.9,1-1.3c0.1-0.2,0.3-0.6,0.3-0.8c0-0.1,0-0.3-0.2-0.3c-0.2,0-0.2,0.2-0.3,0.3
				c-0.1,0.1-0.2,0.2-0.2,0.4c-0.3,0.5-0.5,1-0.6,1.5C77.1,286.5,77,286.6,77.1,286.7z"/>
			<path class="st13" d="M85.3,287.8c-0.1,0.1-0.3,0.4-0.4,0.5c-0.1,0.1-0.4,0.4-0.6,0.5c-0.4,0.3-0.5,0.3-1,0.4
				c-0.1,0-0.2,0.1-0.3,0.2c-0.3,0.6-0.9,1-1.6,1c-0.5,0-0.9-0.1-1.2-0.4c-0.3-0.3-0.4-0.8-0.5-1.2c0-0.2,0-0.6,0.2-0.8
				c0.1-0.1,0.1-0.2,0.2-0.3c0.1-0.2,0.1-0.2,0.2-0.3c0.1-0.1,0.1-0.1,0.1-0.2l0-0.2c0-0.2,0-0.7,0.1-0.9c0.1-0.2,0.3-0.5,0.6-0.5
				c0.5-0.1,1,0,1.4,0.3c0.5,0.3,0.8,0.9,0.9,1.3c0.1,0.6,0.1,0.8,0,1.3c0,0.1,0,0.2,0.1,0.2c0.1,0,0.2,0,0.3-0.1
				c0.3-0.2,0.7-0.7,0.9-0.9c0.1-0.2,0.1-0.4,0.4-0.4c0.2,0,0.3,0.1,0.3,0.2C85.4,287.5,85.4,287.7,85.3,287.8z M82.6,286.9
				c0-0.2-0.1-0.4-0.3-0.6c-0.2-0.2-0.9-0.4-1-0.1c-0.1,0.2-0.1,0.3-0.1,0.5c0,0.1,0,0.3,0.1,0.3c0.1,0,0.7,0,0.6,0.3
				c0,0-0.1,0.1-0.1,0.1c-0.1,0.1-0.1,0.2-0.2,0.3c-0.1,0.1,0,0.2,0.1,0.3c0.2,0.2,0.3,0.4,0.6,0.5c0.1,0.1,0.3,0.1,0.3-0.1
				c0.1-0.2,0.1-0.5,0.2-0.7C82.7,287.5,82.7,287.2,82.6,286.9z M82.2,289.2c0-0.1-0.1-0.1-0.2-0.1c-0.2-0.1-0.4-0.2-0.6-0.3
				c-0.2-0.1-0.2,0-0.2,0.2c0,0.2,0,0.3,0.1,0.4l0.1,0.3c0.1,0.3,0.2,0.3,0.4,0.1C82,289.7,82.2,289.3,82.2,289.2z"/>
			<path class="st13" d="M91.4,290.8c-0.2,0-0.3,0-0.4,0c-0.3,0-0.5-0.2-0.7-0.4c-0.2-0.2-0.2-0.5-0.2-0.6c-0.1-0.1-0.3,0.4-0.4,0.4
				c-0.2,0.3-0.4,0.3-0.8,0.4c-0.2,0-0.3,0-0.5-0.1c-0.3-0.1-0.6-0.7-0.7-1c-0.1-0.7,0-1.3,0.4-1.9c0.1-0.1,0.1-0.2,0.2-0.3
				c0.1-0.2,0.2-0.3,0.3-0.4c0.3-0.3,0.8-0.9,1.3-1c0.1,0,0.3,0,0.4,0.1c0.1,0.1,0.2,0.2,0.4,0.3c0.1,0.1,0.4,0.3,0.4,0.4
				c0,0.2-0.1,0.2,0.1,0.4c0.2,0.1,0.2,0.2,0.2,0.4c0,0.2,0,0.4,0,0.6c0,0.2,0,0.4,0,0.6c0,0.2,0,0.4-0.1,0.6c0,0.2,0,0.8,0,0.9
				c0.1,0.3,0.7-0.7,0.7-0.8c0.2-0.3,0.6-0.8,0.7-1.2c0.1-0.2,0.2-0.3,0.3-0.5c0.1-0.2,0-0.3,0.3-0.3c0.3,0,0.4,0.1,0.4,0.5v0
				c0,0.3-0.2,0.5-0.3,0.8c-0.1,0.3-0.3,0.6-0.5,0.9c-0.2,0.4-0.5,1-0.9,1.2c-0.1,0-0.2,0.1-0.3,0.1
				C91.5,290.8,91.6,290.8,91.4,290.8z M90.1,287.5c-0.3,0.2-0.7,0.8-0.8,1.1c0,0.1-0.1,0.2-0.1,0.4c0,0.1-0.3,1.1,0,0.9
				c0.1-0.1,0.4-0.5,0.5-0.7c0.2-0.3,0.3-0.5,0.4-0.8c0.1-0.3,0.2-0.5,0.3-0.8c0,0,0.1-0.5,0-0.4l0,0l0,0L90.1,287.5z"/>
			<path class="st13" d="M96.1,290c0-0.3,0.1-1,0.1-1.3c0-0.3,0-0.6,0.1-0.9c0-0.2,0.1-0.9,0.1-1c0.1-0.1,0.2,0,0.3,0
				c0.3,0,0.7,0.2,0.8,0.4c0.2,0.3,0.1,0.7,0.1,1c0,0.1,0,0.2-0.1,0.4c0,0.1,0,0.1,0,0.3c0.1-0.1,0.2-0.5,0.3-0.6
				c0-0.1,0.1-0.2,0.1-0.3c0.1-0.2,0.2-0.4,0.3-0.6c0.2-0.4,0.5-0.8,1-0.9c0.5,0,0.6,0.3,0.7,0.6c0.1,0.2,0.1,0.3,0.1,0.5
				c0,0.2,0.1,0.2,0.1,0.4c0,0.4,0.2-0.1,0.2-0.2c0.1-0.2,0.2-0.5,0.3-0.7c0.1-0.3,0.3-0.6,0.6-0.6c0.2,0,0.4,0,0.5,0.2
				c0.3,0.4,0.3,0.8,0.3,1.2c0,0.3,0,0.4-0.1,0.7c-0.1,0.4,0,0.8,0,1.2c0,0.6,0.3,0.3,0.5,0c0.2-0.2,0.3-0.4,0.4-0.7
				c0.1-0.2,0.2-0.3,0.3-0.6c0.1-0.1,0.3-0.7,0.4-0.8c0.1,0,0.2-0.2,0.2-0.1c0.1,0.1,0.1,0.2,0.1,0.3c0,0.2-0.4,1.3-0.5,1.5
				c-0.2,0.3-0.4,0.6-0.6,0.8c-0.1,0.2-0.4,0.4-0.6,0.5c-0.2,0-0.6,0.1-0.7,0c-0.2,0-0.3-0.1-0.4-0.2c-0.4-0.4-0.3-0.8-0.3-1.2
				c0-0.5,0-0.9,0.1-1.4c0-0.1,0.1-0.4,0-0.5c-0.1,0-0.3,0.6-0.4,0.8c-0.2,0.4-0.2,0.8-0.4,1.2c-0.1,0.2-0.1,0.5-0.2,0.6
				c-0.1,0.3-0.1,0.2-0.2,0.5c-0.1,0.3-0.2,0.2-0.5,0.3c-0.2,0-0.3,0-0.4-0.1c-0.2-0.2-0.2-0.5-0.2-0.8c0-0.3,0.1-0.6,0.1-1
				c0.1-0.3,0.1-0.7,0.1-1c0-0.1,0.1-0.4-0.1-0.4c-0.1,0-0.1,0-0.1,0c-0.3,0.3-0.4,1.1-0.5,1.4c-0.1,0.2-0.1,0.3-0.1,0.5
				c0,0.2-0.2,0.8-0.3,1c-0.1,0.3-0.2,0.7-0.6,0.7c-0.2,0-0.5,0-0.7,0C96.4,290.8,96.2,290.3,96.1,290z"/>
			<path class="st13" d="M106.8,290.8c-0.2,0-0.3,0-0.4,0c-0.3,0-0.5-0.2-0.7-0.4c-0.2-0.2-0.2-0.5-0.2-0.6
				c-0.1-0.1-0.3,0.4-0.4,0.4c-0.2,0.3-0.4,0.3-0.8,0.4c-0.2,0-0.3,0-0.5-0.1c-0.3-0.1-0.6-0.7-0.7-1c-0.1-0.7,0-1.3,0.4-1.9
				c0.1-0.1,0.1-0.2,0.2-0.3c0.1-0.2,0.2-0.3,0.3-0.4c0.3-0.3,0.8-0.9,1.3-1c0.1,0,0.3,0,0.4,0.1c0.1,0.1,0.2,0.2,0.4,0.3
				c0.1,0.1,0.4,0.3,0.4,0.4c0,0.2-0.1,0.2,0.1,0.4c0.2,0.1,0.2,0.2,0.2,0.4c0,0.2,0,0.4,0,0.6c0,0.2,0,0.4,0,0.6
				c0,0.2,0,0.4-0.1,0.6c0,0.2,0,0.8,0,0.9c0.1,0.3,0.7-0.7,0.7-0.8c0.2-0.3,0.6-0.8,0.7-1.2c0.1-0.2,0.2-0.3,0.3-0.5
				c0.1-0.2,0-0.3,0.3-0.3c0.3,0,0.4,0.1,0.4,0.5v0c0,0.3-0.2,0.5-0.3,0.8c-0.1,0.3-0.3,0.6-0.5,0.9c-0.2,0.4-0.5,1-0.9,1.2
				c-0.1,0-0.2,0.1-0.3,0.1C106.9,290.8,107,290.8,106.8,290.8z M105.5,287.5c-0.3,0.2-0.7,0.8-0.8,1.1c0,0.1-0.1,0.2-0.1,0.4
				c0,0.1-0.3,1.1,0,0.9c0.1-0.1,0.4-0.5,0.5-0.7c0.2-0.3,0.3-0.5,0.4-0.8c0.1-0.3,0.2-0.5,0.3-0.8c0,0,0.1-0.5,0-0.4l0,0l0,0
				L105.5,287.5z"/>
			<path class="st13" d="M109.9,288.6c-0.1,0.5-0.1,0.6-0.3,1.1c-0.1,0.2-0.1,0.4-0.2,0.7c0,0,0,0.1-0.1,0.2
				c-0.1,0.2-0.1,0.3-0.4,0.3c-0.1,0-0.8,0-0.9-0.1c-0.3-0.2-0.3-0.8-0.3-1.2c0-0.2,0-0.4,0-0.6c0-0.4,0.1-0.8,0.1-1.3l0.1-0.5
				c0-0.1,0-0.2,0.1-0.3c0-0.1,0-0.2,0-0.2c0-0.1,0.1-0.1,0.1-0.1c0.5,0.1,0.8,0.3,0.8,0.6c0,0.1,0,0.3,0,0.4c0,0.1,0,0.2,0,0.3
				c0,0.1,0,0.3,0,0.4c0,0.3,0,0.7,0,1c0,0.3,0.1,0.2,0.1,0c0.1-0.2,0.1-0.5,0.2-0.7c0.2-0.5,0.5-1.5,0.8-1.9
				c0.1-0.1,0.1-0.1,0.2-0.2c0.1-0.1,0.3-0.1,0.4-0.1c0.2,0,0.4,0.1,0.5,0.3c0.1,0.1,0.1,0.3,0.1,0.5c0.1,0.4-0.1,1.1-0.1,1.5
				c0,0.2,0,0.3,0,0.5c0,0.1,0,0.2,0,0.3c0,0,0,0.4,0.1,0.3c0.1-0.1,0.1-0.3,0.2-0.4c0.1-0.2,0.3-0.4,0.4-0.6
				c0.1-0.2,0.2-0.4,0.3-0.5c0.1-0.2,0.2-0.3,0.3-0.5c0-0.1,0.1-0.2,0.2-0.3l0.1,0c0.1,0,0.3,0,0.3,0.1c0.1,0.1,0,0.3-0.1,0.4
				c-0.1,0.2-0.1,0.3-0.2,0.5c-0.1,0.1-0.4,0.8-0.5,0.9c-0.1,0.2-0.3,0.5-0.4,0.7c-0.1,0.2-0.2,0.3-0.4,0.3c-0.1,0-0.1,0-0.2,0.1
				c-0.2,0-0.5,0-0.7-0.1c-0.1-0.1-0.2-0.2-0.3-0.4c-0.1-0.2-0.1-0.3-0.1-0.5c0-0.1,0-0.2,0-0.3c0-0.5,0.1-1.2,0.1-1.8
				c0-0.3,0-0.2-0.1,0c-0.1,0.1-0.1,0.3-0.2,0.4L109.9,288.6z"/>
			<path class="st13" d="M117.5,287.8c-0.1,0.1-0.3,0.4-0.4,0.5c-0.1,0.1-0.4,0.4-0.6,0.5c-0.4,0.3-0.5,0.3-1,0.4
				c-0.1,0-0.2,0.1-0.3,0.2c-0.3,0.6-0.9,1-1.6,1c-0.5,0-0.9-0.1-1.2-0.4c-0.3-0.3-0.4-0.8-0.5-1.2c0-0.2,0-0.6,0.2-0.8
				c0.1-0.1,0.1-0.2,0.2-0.3c0.1-0.2,0.1-0.2,0.2-0.3c0.1-0.1,0.1-0.1,0.1-0.2l0-0.2c0-0.2,0-0.7,0.1-0.9c0.1-0.2,0.3-0.5,0.6-0.5
				c0.5-0.1,1,0,1.4,0.3c0.5,0.3,0.8,0.9,0.9,1.3c0.1,0.6,0.1,0.8,0,1.3c0,0.1,0,0.2,0.1,0.2c0.1,0,0.2,0,0.3-0.1
				c0.3-0.2,0.7-0.7,0.9-0.9c0.1-0.2,0.1-0.4,0.4-0.4c0.2,0,0.3,0.1,0.3,0.2C117.7,287.5,117.6,287.7,117.5,287.8z M114.9,286.9
				c0-0.2-0.1-0.4-0.3-0.6c-0.2-0.2-0.9-0.4-1-0.1c-0.1,0.2-0.1,0.3-0.1,0.5c0,0.1,0,0.3,0.1,0.3c0.1,0,0.7,0,0.6,0.3
				c0,0-0.1,0.1-0.1,0.1c-0.1,0.1-0.1,0.2-0.2,0.3c-0.1,0.1,0,0.2,0.1,0.3c0.2,0.2,0.3,0.4,0.6,0.5c0.1,0.1,0.3,0.1,0.3-0.1
				c0.1-0.2,0.1-0.5,0.2-0.7C115,287.5,114.9,287.2,114.9,286.9z M114.5,289.2c0-0.1-0.1-0.1-0.2-0.1c-0.2-0.1-0.4-0.2-0.6-0.3
				c-0.2-0.1-0.2,0-0.2,0.2c0,0.2,0,0.3,0.1,0.4l0.1,0.3c0.1,0.3,0.2,0.3,0.4,0.1C114.2,289.7,114.5,289.3,114.5,289.2z"/>
			<path class="st13" d="M124.6,287.6c0.1-0.2,0.2-0.4,0.4-0.3c0.2,0.1,0.2,0.2,0.1,0.3c-0.1,0.2-0.1,0.3-0.2,0.5
				c-0.1,0.2-0.1,0.4-0.3,0.6c-0.2,0.4-0.3,0.5-0.6,0.8c-0.1,0.1-0.2,0.2-0.3,0.3c-0.3,0.2-0.5,0.3-0.9,0.4c-0.2,0-0.4,0.1-0.6,0.1
				h-0.1c-0.4,0-0.6,0-1-0.2c-0.1,0-0.2-0.1-0.3-0.1c-0.4-0.2-0.7-0.7-0.8-1.1c-0.1-0.2-0.1-0.5-0.1-0.7c0-0.4,0-0.8,0.1-1.1
				c0.1-0.3,0.2-0.5,0.4-0.8c0.3-0.5,1.3-0.7,1.7-0.6c0.2,0.1,0.4,0.1,0.7,0.2c0.3,0.1,0.3,0.2,0.4,0.4c0.1,0.3,0.1,0.8-0.2,1
				c-0.1,0.1-0.3,0.1-0.4,0c-0.1-0.1,0.1-0.3,0.1-0.4c0-0.1,0-0.5-0.1-0.5c-0.2,0-0.5,0.1-0.6,0.3c-0.2,0.2-0.4,0.9-0.4,1.1
				c-0.1,0.3,0,1.1,0.2,1.4c0.2,0.3,0.5,0.5,0.9,0.4c0.3,0,0.4-0.1,0.7-0.3c0.4-0.3,0.6-0.7,0.9-1
				C124.4,288.1,124.5,287.9,124.6,287.6z"/>
			<path class="st13" d="M129.5,287.8c-0.1,0.1-0.3,0.4-0.4,0.5c-0.1,0.1-0.4,0.4-0.6,0.5c-0.4,0.3-0.5,0.3-1,0.4
				c-0.1,0-0.2,0.1-0.3,0.2c-0.3,0.6-0.9,1-1.6,1c-0.5,0-0.9-0.1-1.2-0.4c-0.3-0.3-0.4-0.8-0.5-1.2c0-0.2,0-0.6,0.2-0.8
				c0.1-0.1,0.1-0.2,0.2-0.3c0.1-0.2,0.1-0.2,0.2-0.3c0.1-0.1,0.1-0.1,0.1-0.2l0-0.2c0-0.2,0-0.7,0.1-0.9c0.1-0.2,0.3-0.5,0.6-0.5
				c0.5-0.1,1,0,1.4,0.3c0.5,0.3,0.8,0.9,0.9,1.3c0.1,0.6,0.1,0.8,0,1.3c0,0.1,0,0.2,0.1,0.2c0.1,0,0.2,0,0.3-0.1
				c0.3-0.2,0.7-0.7,0.9-0.9c0.1-0.2,0.1-0.4,0.4-0.4c0.2,0,0.3,0.1,0.3,0.2C129.6,287.5,129.6,287.7,129.5,287.8z M126.8,286.9
				c0-0.2-0.1-0.4-0.3-0.6c-0.2-0.2-0.9-0.4-1-0.1c-0.1,0.2-0.1,0.3-0.1,0.5c0,0.1,0,0.3,0.1,0.3c0.1,0,0.7,0,0.6,0.3
				c0,0-0.1,0.1-0.1,0.1c-0.1,0.1-0.1,0.2-0.2,0.3c-0.1,0.1,0,0.2,0.1,0.3c0.2,0.2,0.3,0.4,0.6,0.5c0.1,0.1,0.3,0.1,0.3-0.1
				c0.1-0.2,0.1-0.5,0.2-0.7C126.9,287.5,126.9,287.2,126.8,286.9z M126.4,289.2c0-0.1-0.1-0.1-0.2-0.1c-0.2-0.1-0.4-0.2-0.6-0.3
				c-0.2-0.1-0.2,0-0.2,0.2c0,0.2,0,0.3,0.1,0.4l0.1,0.3c0.1,0.3,0.2,0.3,0.4,0.1C126.2,289.7,126.4,289.3,126.4,289.2z"/>
			<path class="st13" d="M130.5,288.6c-0.1,0.5-0.1,0.6-0.3,1.1c-0.1,0.2-0.1,0.4-0.2,0.7c0,0,0,0.1-0.1,0.2
				c-0.1,0.2-0.1,0.3-0.4,0.3c-0.1,0-0.8,0-0.9-0.1c-0.3-0.2-0.3-0.8-0.3-1.2c0-0.2,0-0.4,0-0.6c0-0.4,0.1-0.8,0.1-1.3l0.1-0.5
				c0-0.1,0-0.2,0.1-0.3c0-0.1,0-0.2,0-0.2c0-0.1,0.1-0.1,0.1-0.1c0.5,0.1,0.8,0.3,0.8,0.6c0,0.1,0,0.3,0,0.4c0,0.1,0,0.2,0,0.3
				c0,0.1,0,0.3,0,0.4c0,0.3,0,0.7,0,1c0,0.3,0.1,0.2,0.1,0c0.1-0.2,0.1-0.5,0.2-0.7c0.2-0.5,0.5-1.5,0.8-1.9
				c0.1-0.1,0.1-0.1,0.2-0.2c0.1-0.1,0.3-0.1,0.4-0.1c0.2,0,0.4,0.1,0.5,0.3c0.1,0.1,0.1,0.3,0.1,0.5c0.1,0.4-0.1,1.1-0.1,1.5
				c0,0.2,0,0.3,0,0.5c0,0.1,0,0.2,0,0.3c0,0,0,0.4,0.1,0.3c0.1-0.1,0.1-0.3,0.2-0.4c0.1-0.2,0.3-0.4,0.4-0.6
				c0.1-0.2,0.2-0.4,0.3-0.5c0.1-0.2,0.2-0.3,0.3-0.5c0-0.1,0.1-0.2,0.2-0.3l0.1,0c0.1,0,0.3,0,0.3,0.1c0.1,0.1,0,0.3-0.1,0.4
				c-0.1,0.2-0.1,0.3-0.2,0.5c-0.1,0.1-0.4,0.8-0.5,0.9c-0.1,0.2-0.3,0.5-0.4,0.7c-0.1,0.2-0.2,0.3-0.4,0.3c-0.1,0-0.1,0-0.2,0.1
				c-0.2,0-0.5,0-0.7-0.1c-0.1-0.1-0.2-0.2-0.3-0.4c-0.1-0.2-0.1-0.3-0.1-0.5c0-0.1,0-0.2,0-0.3c0-0.5,0.1-1.2,0.1-1.8
				c0-0.3,0-0.2-0.1,0c-0.1,0.1-0.1,0.3-0.2,0.4L130.5,288.6z"/>
			<path class="st13" d="M140.1,290.8c-0.2,0-0.3,0-0.4,0c-0.3,0-0.5-0.2-0.7-0.4c-0.2-0.2-0.2-0.5-0.2-0.6
				c-0.1-0.1-0.3,0.4-0.4,0.4c-0.2,0.3-0.4,0.3-0.8,0.4c-0.2,0-0.3,0-0.5-0.1c-0.3-0.1-0.6-0.7-0.7-1c-0.1-0.7,0-1.3,0.4-1.9
				c0.1-0.1,0.1-0.2,0.2-0.3c0.1-0.2,0.2-0.3,0.3-0.4c0.3-0.3,0.8-0.9,1.3-1c0.1,0,0.3,0,0.4,0.1c0.1,0.1,0.2,0.2,0.4,0.3
				c0.1,0.1,0.4,0.3,0.4,0.4c0,0.2-0.1,0.2,0.1,0.4c0.2,0.1,0.2,0.2,0.2,0.4c0,0.2,0,0.4,0,0.6c0,0.2,0,0.4,0,0.6
				c0,0.2,0,0.4-0.1,0.6c0,0.2,0,0.8,0,0.9c0.1,0.3,0.7-0.7,0.7-0.8c0.2-0.3,0.6-0.8,0.7-1.2c0.1-0.2,0.2-0.3,0.3-0.5
				c0.1-0.2,0-0.3,0.3-0.3c0.3,0,0.4,0.1,0.4,0.5v0c0,0.3-0.2,0.5-0.3,0.8c-0.1,0.3-0.3,0.6-0.5,0.9c-0.2,0.4-0.5,1-0.9,1.2
				c-0.1,0-0.2,0.1-0.3,0.1C140.2,290.8,140.2,290.8,140.1,290.8z M138.7,287.5c-0.3,0.2-0.7,0.8-0.8,1.1c0,0.1-0.1,0.2-0.1,0.4
				c0,0.1-0.3,1.1,0,0.9c0.1-0.1,0.4-0.5,0.5-0.7c0.2-0.3,0.3-0.5,0.4-0.8c0.1-0.3,0.2-0.5,0.3-0.8c0,0,0.1-0.5,0-0.4l0,0l0,0
				L138.7,287.5z"/>
			<path class="st13" d="M141.1,290c0-0.3,0.1-1,0.1-1.3c0-0.3,0-0.6,0.1-0.9c0-0.2,0.1-0.9,0.1-1s0.2,0,0.3,0
				c0.3,0,0.7,0.2,0.8,0.4c0.2,0.3,0.1,0.7,0.1,1c0,0.1,0,0.2-0.1,0.4c0,0.1,0,0.1,0,0.3c0.1-0.1,0.2-0.5,0.3-0.6
				c0-0.1,0.1-0.2,0.1-0.3c0.1-0.2,0.2-0.4,0.3-0.6c0.2-0.4,0.5-0.8,1-0.9c0.5,0,0.6,0.3,0.7,0.6c0.1,0.2,0.1,0.3,0.1,0.5
				c0,0.2,0.1,0.2,0.1,0.4c0,0.4,0.2-0.1,0.2-0.2c0.1-0.2,0.2-0.5,0.3-0.7c0.1-0.3,0.3-0.6,0.6-0.6c0.2,0,0.4,0,0.5,0.2
				c0.3,0.4,0.3,0.8,0.3,1.2c0,0.3,0,0.4-0.1,0.7c-0.1,0.4,0,0.8,0,1.2c0,0.6,0.3,0.3,0.5,0c0.2-0.2,0.3-0.4,0.4-0.7
				c0.1-0.2,0.2-0.3,0.3-0.6c0.1-0.1,0.3-0.7,0.4-0.8c0.1,0,0.2-0.2,0.2-0.1c0.1,0.1,0.1,0.2,0.1,0.3c0,0.2-0.4,1.3-0.5,1.5
				c-0.2,0.3-0.4,0.6-0.6,0.8c-0.1,0.2-0.4,0.4-0.6,0.5c-0.2,0-0.6,0.1-0.7,0c-0.2,0-0.3-0.1-0.4-0.2c-0.4-0.4-0.3-0.8-0.3-1.2
				c0-0.5,0-0.9,0.1-1.4c0-0.1,0.1-0.4,0-0.5c-0.1,0-0.3,0.6-0.4,0.8c-0.2,0.4-0.2,0.8-0.4,1.2c-0.1,0.2-0.1,0.5-0.2,0.6
				c-0.1,0.3-0.1,0.2-0.2,0.5c-0.1,0.3-0.2,0.2-0.5,0.3c-0.2,0-0.3,0-0.4-0.1c-0.2-0.2-0.2-0.5-0.2-0.8c0-0.3,0.1-0.6,0.1-1
				c0.1-0.3,0.1-0.7,0.1-1c0-0.1,0.1-0.4-0.1-0.4c-0.1,0-0.1,0-0.1,0c-0.3,0.3-0.4,1.1-0.5,1.4c-0.1,0.2-0.1,0.3-0.1,0.5
				c0,0.2-0.2,0.8-0.3,1c-0.1,0.3-0.2,0.7-0.6,0.7c-0.2,0-0.5,0-0.7,0C141.3,290.8,141.1,290.3,141.1,290z"/>
			<path class="st13" d="M153.4,287.8c-0.1,0.1-0.3,0.4-0.4,0.5c-0.1,0.1-0.4,0.4-0.6,0.5c-0.4,0.3-0.5,0.3-1,0.4
				c-0.1,0-0.2,0.1-0.3,0.2c-0.3,0.6-0.9,1-1.6,1c-0.5,0-0.9-0.1-1.2-0.4c-0.3-0.3-0.4-0.8-0.5-1.2c0-0.2,0-0.6,0.2-0.8
				c0.1-0.1,0.1-0.2,0.2-0.3c0.1-0.2,0.1-0.2,0.2-0.3c0.1-0.1,0.1-0.1,0.1-0.2l0-0.2c0-0.2,0-0.7,0.1-0.9c0.1-0.2,0.3-0.5,0.6-0.5
				c0.5-0.1,1,0,1.4,0.3c0.5,0.3,0.8,0.9,0.9,1.3c0.1,0.6,0.1,0.8,0,1.3c0,0.1,0,0.2,0.1,0.2c0.1,0,0.2,0,0.3-0.1
				c0.3-0.2,0.7-0.7,0.9-0.9c0.1-0.2,0.1-0.4,0.4-0.4c0.2,0,0.3,0.1,0.3,0.2C153.6,287.5,153.6,287.7,153.4,287.8z M150.8,286.9
				c0-0.2-0.1-0.4-0.3-0.6c-0.2-0.2-0.9-0.4-1-0.1c-0.1,0.2-0.1,0.3-0.1,0.5c0,0.1,0,0.3,0.1,0.3c0.1,0,0.7,0,0.6,0.3
				c0,0-0.1,0.1-0.1,0.1c-0.1,0.1-0.1,0.2-0.2,0.3c-0.1,0.1,0,0.2,0.1,0.3c0.2,0.2,0.3,0.4,0.6,0.5c0.1,0.1,0.3,0.1,0.3-0.1
				c0.1-0.2,0.1-0.5,0.2-0.7C150.9,287.5,150.8,287.2,150.8,286.9z M150.4,289.2c0-0.1-0.1-0.1-0.2-0.1c-0.2-0.1-0.4-0.2-0.6-0.3
				c-0.2-0.1-0.2,0-0.2,0.2c0,0.2,0,0.3,0.1,0.4l0.1,0.3c0.1,0.3,0.2,0.3,0.4,0.1C150.1,289.7,150.4,289.3,150.4,289.2z"/>
			<path class="st13" d="M155.5,290.1c-0.1,0.1-0.6,0.6-0.6,0.6c-0.4,0.2-0.8,0.3-1.2,0c-0.2-0.1-0.4-0.3-0.4-0.6
				c-0.1-0.5-0.1-0.6,0-1.1c0-0.2,0.1-0.3,0-0.5c0-0.2-0.2-0.3-0.3-0.4c-0.2-0.1-0.4-0.3-0.5-0.5c-0.1-0.2-0.1-0.2-0.1-0.5
				c0-0.4,0-0.5,0.2-0.9c0.1-0.3,0.3-0.5,0.4-0.7c0.1-0.2,0.2-0.3,0.4-0.2c0.4,0.1,1.1,0.5,0.9,0.9l0,0l-0.1,0.2
				c-0.2,0.3-0.2,0.5-0.4,0.8c-0.3,0.4,0,0.5,0.3,0.7c0.1,0,0.2,0.1,0.2,0.2c0.3,0.4,0.3,0.5,0.3,0.9c0,0.2,0,0.4,0,0.6
				c0,0.2,0.2,0.3,0.5,0c0.1-0.1,0.1-0.2,0.2-0.3c0.1-0.1,0.1-0.2,0.2-0.4c0.1-0.2,0.2-0.4,0.3-0.6c0.2-0.3,0.3-0.6,0.4-0.8
				c0.1-0.1,0.2-0.3,0.4-0.2c0.2,0.1,0.1,0.5,0,0.7c-0.1,0.1-0.1,0.2-0.1,0.3c0,0.1,0,0.1-0.1,0.2c-0.3,0.5-0.3,0.7-0.7,1.2
				L155.5,290.1z"/>
		</g>
		<path class="st14" d="M73.5,238.9c-0.3,0.8-0.6,1.3-1.1,2c-0.6,0.9-1,1.9-2,2.4c-1.6,0.9-2.6,0.9-3.6,0.5l-0.2-0.1
			c-0.9-0.3-1.1-0.3-1.8-1c-2.2-1.9-3-5.7-3-8.3c0-2.5,0.7-4.4,1.6-6.7c0.3-0.6,1-2.3,1.5-2.8c0.3-0.3,0.6-0.7,0.9-1
			c0.9-1,3-2.3,4.4-1.8c1.1,0.4,1.9,1.2,2.4,2.2c0.3,0.7,0.6,0.9,0.9,1.7c0.5,1.8,0.6,3.1,0.7,4.9c0,0.2,0,0.4,0,0.6
			C74.4,233.8,74.3,236.8,73.5,238.9z M71.7,231.8c-0.1-0.7,0-1.1-0.1-1.7c0-0.1,0-0.1,0-0.2c-0.1-0.4-0.3-0.2-0.5,0
			c-1.2,0.8-2.4,1-3.8,0.9c-0.8,0-0.7,0.8-0.7,1.6c0,0.7,0,0.8,0.1,1.4c0.1,0.8-0.1,1.5,0.1,2.3c0.3,1.8,0.3,2.7,1,4.5
			c0.5,1.2,1.9,1.3,2.6-0.2c0.6-1.3,0.8-3.3,1-4.7C71.6,234.6,71.9,232.7,71.7,231.8z M66.9,229.6c0.3,0.5,2.1,0.1,2.5,0
			c0.7-0.2,1.4-0.7,1.9-1.2c0.4-0.3,0.3-0.5,0.3-1c-0.1-1-0.3-1.6-0.7-2.6c-0.1-0.2-0.3-1.2-0.8-1.2c-0.8,0-1.6,1.2-1.7,1.5
			c-0.3,0.7-0.5,1.4-0.8,2.1C67.3,227.6,66.7,229.3,66.9,229.6z"/>
		<path class="st14" d="M82.3,235.9c-0.4,1.4-0.3,1.8-0.8,3.2c-0.3,0.7-0.4,1.3-0.7,2.1c0,0.1-0.1,0.3-0.2,0.5
			c-0.2,0.5-0.4,0.9-1,0.8c-0.4,0-2.3,0-2.6-0.2c-0.9-0.5-0.9-2.5-0.9-3.5c0-0.7,0-1.3,0.1-1.9c0.1-1.3,0.2-2.5,0.3-3.8l0.3-1.6
			c0-0.3,0.1-0.6,0.2-1c0.1-0.3,0-0.5,0.1-0.7c0.1-0.2,0.2-0.2,0.4-0.2c1.4,0.2,2.4,0.8,2.5,1.9c0,0.4-0.1,0.8-0.1,1.2
			c0,0.3,0,0.5,0,0.8c0,0.4,0.1,0.8,0,1.2c-0.1,1-0.1,2.1-0.1,3c0,0.8,0.2,0.7,0.4,0c0.2-0.7,0.4-1.4,0.6-2c0.5-1.5,1.4-4.4,2.4-5.6
			c0.2-0.2,0.3-0.3,0.5-0.5c0.3-0.2,0.8-0.3,1.1-0.2c0.5,0,1.2,0.3,1.5,0.8c0.3,0.4,0.3,1,0.3,1.4c0.2,1.2-0.3,3.2-0.3,4.5
			c0,0.5,0.1,1,0,1.4c0,0.3,0,0.7,0,1c0,0.1,0,1.3,0.4,0.9c0.2-0.3,0.4-0.8,0.6-1.2c0.4-0.7,0.8-1.2,1.1-1.9c0.3-0.7,0.5-1.1,1-1.6
			c0.4-0.5,0.5-1,0.9-1.6c0.1-0.2,0.4-0.7,0.6-0.8l0.3-0.1c0.3-0.1,0.8,0,0.9,0.2c0.2,0.4-0.1,0.9-0.3,1.3c-0.2,0.5-0.3,0.9-0.5,1.4
			c-0.2,0.4-1.2,2.3-1.5,2.8c-0.4,0.7-0.9,1.4-1.3,2.1c-0.3,0.5-0.7,0.8-1.2,1c-0.2,0.1-0.4,0.1-0.7,0.2c-0.7,0.1-1.4,0.1-2-0.3
			c-0.4-0.2-0.7-0.7-0.8-1.1c-0.2-0.5-0.3-1-0.3-1.6c0-0.3,0-0.5,0-0.8c0-1.6,0.2-3.7,0.4-5.3c0.1-0.8,0-0.6-0.3-0.1
			c-0.2,0.3-0.3,0.8-0.5,1.3L82.3,235.9z"/>
		<path class="st14" d="M88.8,234.4c0-1.7,0.6-3,1.7-4.4c0.3-0.4,0.8-0.7,1.2-1c1.2-1,2.3-1.2,3.8-1.1c1.9,0.1,3.4,1.3,3.4,3.1
			c0,0.5-0.1,0.8-0.3,1.2c-0.3,0.6-0.4,1-0.9,1.5c-0.9,0.9-1,0.8-2.4,1.3c-0.4,0.1-1.8,0.3-2.1,0.3c-0.2,0-0.1,0.9,0,1.2
			c0.3,1.5,1,2.7,2.7,2.6c1-0.1,1.5-0.6,2.3-1.4c0.9-0.9,1.5-2,2.2-3c0.2-0.3,0.3-0.6,0.5-1c0.3-0.3,0.3-0.7,0.5-1
			c0.4-0.6,1.5-0.3,1.7,0.2c0,0.2-0.1,0.6-0.2,0.9c-0.2,0.3-0.3,0.6-0.4,0.9c-0.2,0.5-0.6,0.9-0.9,1.3c-0.7,0.8-1.8,2.6-2.6,3.1
			c-0.7,0.5-1.9,1.3-2.8,1.5c-0.8,0.2-2.6,0.1-3.3-0.1c-0.5-0.2-1-0.4-1.5-0.7c-0.6-0.2-1.1-0.9-1.5-1.4
			C88.9,237.2,88.8,235.8,88.8,234.4z M95.7,231.6c0.3-0.5,1.1-1.9,0.6-2.4c-0.2-0.2-0.5-0.4-0.8-0.4c-0.6,0.1-0.8,0.6-1.2,1
			c-0.5,0.5-1,1.2-1.2,1.9c-0.3,0.5-0.3,1.8-0.2,2.3c0.1,0.4,0.9-0.2,1-0.3C94.7,233.1,95.2,232.4,95.7,231.6z"/>
		<path class="st14" d="M108.3,241.1c0.1-0.7,0-1.4,0.1-2.1c0.1-0.7,0-1.2,0.1-1.8c0.1-1,0-2.1,0.1-3.1c0-0.9,0-1.6,0.1-2.5
			s0.1-1.7,0.2-2.6c0-0.7,0.1-1.2,0.2-1.8c0.1-0.9,0.2-1.7,0.3-2.6c0-0.6,0.1-2.3,0.3-2.7c0.4-0.5,1.6-0.3,2.1-0.1
			c0.5,0.2,1.4,0.5,1.5,1.1c0.2,1.6,0,5.3-0.2,7c-0.1,0.7-0.1,1.4-0.2,2.2c-0.1,1.1-0.1,2.3-0.2,3.3c0,0.8,0,1.6,0,2.4
			c0,0.6-0.1,3.1,0.4,3.4c0.2,0.1,1.4-0.1,1.9-0.1c0.3,0,1.2,0.1,1.4,0.3c0.2,0.2,0.2,0.9,0,1.2c-0.3,0.5-1.3,0.5-1.8,0.5
			c-1.2,0-2.4,0-3.5,0c-0.6,0-1.8,0.2-2.3-0.1C108.2,242.3,108.2,241.6,108.3,241.1z"/>
		<path class="st14" d="M122.1,239.1l1-1.3c0.3-0.4,0.6-0.9,1-1.3c0.3-0.4,0.5-0.8,0.7-1.2c0.3-0.7,0.4-1.2,0.8-1.9
			c0.1-0.2,0.6-1.2,0.8-1.3c0.4-0.1,1.1,0,1.2,0.4c0,0.3-0.1,1.2-0.1,1.4c-0.1,1.1-0.4,1.6-0.6,2.6c-0.3,0.7-0.8,1.5-1.2,2.1
			c-0.9,1.3-2.2,2.3-4,2.7c-1.2,0.2-2.8,0.1-3.8-0.6l-0.1-0.1c-0.8-0.6-1.2-1.5-1.6-2.4c-0.1-0.4-0.3-1.2-0.3-1.6
			c0-0.7,0.1-1.1,0.2-1.8c0.1-0.5,0.1-0.7,0.2-1.2c0.2-0.6,0-0.5,0.2-1.1c0.2-0.5,0.5-2.4,1.1-2.5c0.4-0.1,1.3,0,1.8,0.1
			c0.5,0.1,1.1,0.3,1.4,0.8c0.5,1,0.3,1,0,2c-0.2,0.8-0.2,0.9-0.4,1.8c-0.1,0.5-0.2,0.8-0.3,1.2c-0.1,0.4-0.1,0.8,0,1.4
			c0.1,0.6,0.3,1.4,0.6,1.8C121.1,239.7,121.5,239.9,122.1,239.1z M122.2,227.2c-0.4,0.4-0.7,0.5-1.3,0.6c-1.2,0.2-3.2-0.3-3.5-1.5
			c-0.3-1.2,0.3-2.9,1-3.8c0.4-0.5,0.9-0.4,1.5-0.5c0.7-0.1,2.4,0.2,2.9,0.5c0.3,0.3,0.8,1,0.8,1.4c0,0.4-0.1,0.9-0.2,1.3
			C123.1,226.4,123,226.3,122.2,227.2z"/>
		<path class="st14" d="M124,235.3c0-0.6,0.1-1.6,0.2-2.2c0.1-0.7,0.1-1.4,0.3-2.1c0.1-0.7,0.2-1.2,0.4-1.9c0-0.2,0.2-0.9-0.2-0.9
			c-0.4,0-0.8,0.2-1.2-0.2c-0.2-0.1-0.6-1-0.3-1.1c0.5-0.2,1.7,0,2-0.4c0.1-0.2,0.1-0.8,0.2-1.1l0.3-1c0.1-0.4,0.6-2,1-2.1
			c0.3-0.1,1.6,0.3,1.8,0.5c0.3,0.3,0.2,0.8,0.2,1.2c0.1,0.5-0.1,1.1-0.2,1.6c-0.1,0.5,0.1,0.5,0.6,0.4c0.3,0,0.5-0.1,0.8-0.1
			c0.6,0,0.8,0.3,1.2,0.6c0.4,0.4,0.4,0.8,0.1,1.1c-0.5,0.4-1.1,0.3-1.8,0.4c-0.3,0.1-0.8,0.1-0.9,0.3c-0.1,0.3-0.1,1.5-0.1,1.9
			c0,1.2-0.2,2.3-0.2,3.6c0,0.7,0,1.3,0.1,2c0.1,1,0,1.7,0.4,2.6c0.3,0.7,0.7,0.3,1.1-0.1c0.2-0.2,0.4-0.5,0.5-0.7
			c0.3-0.5,0.5-0.9,0.8-1.4l0.8-1.5c0.2-0.4,0.4-0.8,0.8-1.2c0.2-0.3,0.5-0.8,0.7-1c0.3-0.2,1-0.1,1,0.2c0.3,0.8-0.8,2.7-1.2,3.5
			c-1,1.7-1.3,2-2.1,3.2c-0.3,0.5-1,1.2-1.7,1.2c-1.3,0-2.1,0.6-3.3-0.4c-1.4-1.1-1.9-2.5-2-4L124,235.3z"/>
		<path class="st14" d="M131.2,235.3c0-0.6,0.1-1.6,0.2-2.2c0.1-0.7,0.1-1.4,0.3-2.1c0.1-0.7,0.2-1.2,0.4-1.9c0-0.2,0.2-0.9-0.2-0.9
			c-0.4,0-0.8,0.2-1.2-0.2c-0.2-0.1-0.6-1-0.3-1.1c0.5-0.2,1.7,0,2-0.4c0.1-0.2,0.1-0.8,0.2-1.1l0.3-1c0.1-0.4,0.6-2,1-2.1
			c0.3-0.1,1.6,0.3,1.8,0.5c0.3,0.3,0.2,0.8,0.2,1.2c0.1,0.5-0.1,1.1-0.2,1.6c-0.1,0.5,0.1,0.5,0.6,0.4c0.3,0,0.5-0.1,0.8-0.1
			c0.6,0,0.8,0.3,1.2,0.6c0.4,0.4,0.4,0.8,0.1,1.1c-0.5,0.4-1.1,0.3-1.8,0.4c-0.3,0.1-0.8,0.1-0.9,0.3c-0.1,0.3-0.1,1.5-0.1,1.9
			c0,1.2-0.2,2.3-0.2,3.6c0,0.7,0,1.3,0.1,2c0.1,1,0,1.7,0.4,2.6c0.3,0.7,0.7,0.3,1.1-0.1c0.2-0.2,0.4-0.5,0.5-0.7
			c0.3-0.5,0.5-0.9,0.8-1.4l0.8-1.5c0.2-0.4,0.4-0.8,0.8-1.2c0.2-0.3,0.5-0.8,0.7-1c0.3-0.2,1-0.1,1,0.2c0.3,0.8-0.8,2.7-1.2,3.5
			c-1,1.7-1.3,2-2.1,3.2c-0.3,0.5-1,1.2-1.7,1.2c-1.3,0-2.1,0.6-3.3-0.4c-1.4-1.1-1.9-2.5-2-4L131.2,235.3z"/>
		<path class="st14" d="M148.6,236.6c-1,2.3-0.8,2.3-2.4,4.2c-0.7,0.8-0.8,0.8-1.9,1c-0.4,0.1-0.8,0.1-1.2,0.1
			c-1.1,0-1.7-0.1-2.6-0.8c-0.4-0.3-0.6-0.6-0.9-1c-0.6-1.2-1.1-3-1-4.4c0-0.4,0-0.7,0-1.1c0-1.2,0.1-2.4,0.3-3.6
			c0.1-0.5,0.2-1,0.3-1.4c0.2-0.9,0.5-1.9,0.8-2.7c0.4-1.3,1-3,1.9-4.1c1.1-1.4,2.1-1.3,3.1-1.2c1,0.1,1.8,1.3,2.1,1.8
			c0.3,0.8,0.3,1.7,0.3,2.4c-0.1,0.7-0.6,2.3-1,2.9c-0.6,1.2-1.5,2.5-2.4,3.6c-0.3,0.4-0.9,0.9-1.2,1.3c-0.7,0.8-0.6,1.7-0.4,2.8
			c0.1,0.6,0,0.9,0.2,1.5c0.1,0.5,0.5,2.2,1.1,2.2c0.6,0,1.2-1,1.6-1.5c0.4-0.7,0.8-1.3,1.3-1.9c0.4-0.6,0.8-1.3,1-1.8
			c0.1-0.2,0.1-0.2,0.1-0.2s0,0,0.1-0.3c0.2-0.4,0.3-0.8,0.6-1.3c0.2-0.5,0.6-1,1.2-0.9c0.4,0.1,0.4,0.6,0.4,1
			C149.9,234.1,149.2,235.4,148.6,236.6z M142.6,230.8c0.8-1.2,1.6-2.9,1.8-3.3c0.3-0.8,0.9-2.1,0.9-2.8c0-1.2,0-2.5-1.2-1
			c-0.5,0.5-0.5,1-0.8,1.6c-0.3,0.9-0.4,1.4-0.6,2.3c-0.1,0.7-0.2,1.3-0.3,2c0,0.1-0.1,0.7-0.2,1.3
			C142.1,231.1,142.4,231.2,142.6,230.8z"/>
		<path class="st14" d="M146.7,234.4c0-1.7,0.6-3,1.7-4.4c0.3-0.4,0.8-0.7,1.2-1c1.2-1,2.3-1.2,3.8-1.1c1.9,0.1,3.4,1.3,3.4,3.1
			c0,0.5-0.1,0.8-0.3,1.2c-0.3,0.6-0.4,1-0.9,1.5c-0.9,0.9-1,0.8-2.4,1.3c-0.4,0.1-1.8,0.3-2.1,0.3c-0.2,0-0.1,0.9,0,1.2
			c0.3,1.5,1,2.7,2.7,2.6c1-0.1,1.5-0.6,2.3-1.4c0.9-0.9,1.5-2,2.2-3c0.2-0.3,0.3-0.6,0.5-1c0.3-0.3,0.3-0.7,0.5-1
			c0.4-0.6,1.5-0.3,1.7,0.2c0,0.2-0.1,0.6-0.2,0.9c-0.2,0.3-0.3,0.6-0.4,0.9c-0.2,0.5-0.6,0.9-0.9,1.3c-0.7,0.8-1.8,2.6-2.6,3.1
			c-0.7,0.5-1.9,1.3-2.8,1.5c-0.8,0.2-2.6,0.1-3.3-0.1c-0.5-0.2-1-0.4-1.5-0.7c-0.6-0.2-1.1-0.9-1.5-1.4
			C146.7,237.2,146.6,235.8,146.7,234.4z M153.5,231.6c0.3-0.5,1.1-1.9,0.6-2.4c-0.2-0.2-0.5-0.4-0.8-0.4c-0.6,0.1-0.8,0.6-1.2,1
			c-0.5,0.5-1,1.2-1.2,1.9c-0.3,0.5-0.3,1.8-0.2,2.3c0.1,0.4,0.9-0.2,1-0.3C152.6,233.1,153,232.4,153.5,231.6z"/>
		<g>
			<path class="st15" d="M63.6,277.4c0.2-1.1,0-2.1,0.2-3.2c0.2-1,0.1-1.9,0.3-2.8c0.2-1.6,0.1-3.2,0.2-4.8c0.1-1.4,0.1-2.5,0.2-3.8
				c0.2-1.4,0.3-2.6,0.3-4c0-1,0.1-1.8,0.3-2.8c0.2-1.4,0.4-2.6,0.5-4c0-0.9,0.2-3.5,0.6-4.1c0.7-0.7,2.4-0.4,3.2-0.2
				c0.8,0.3,2.1,0.8,2.2,1.7c0.2,2.5-0.2,8.1-0.5,10.7c-0.2,1.1-0.1,2.2-0.3,3.3c-0.2,1.6-0.3,3.4-0.4,5c0,1.2-0.1,2.4-0.1,3.6
				c0,0.9-0.3,4.7,0.5,5.1c0.3,0.1,2.2-0.2,2.9-0.2c0.5,0,1.9,0.2,2.1,0.5c0.3,0.3,0.3,1.4,0,1.8c-0.5,0.7-2,0.8-2.8,0.7
				c-1.8,0-3.6,0-5.4-0.1c-1,0-2.8,0.2-3.5-0.2C63.4,279.3,63.4,278.2,63.6,277.4z M86,259.9c-1.1,0.4-2,0.4-3.1,0.7
				c-1.2,0.3-0.9,1-1,1.9c0,1.1,0.1,2.3,0.1,3.3c-0.1,0.7,0,1.3,0,1.9c-0.1,1.2-0.2,2.4-0.2,3.6c0,0.3,0,2,0.2,2.1
				c0.4,0.2,1.4,0.1,1.8,0c0.8-0.1,1-0.2,1.8-0.2c0.8,0,2.1,0,2.7,0.4c0.1,0,0.3,0.2,0.4,0.4c0.4,0.9-1.9,1.5-2.7,1.7l-7.2,0.4
				l-3.1,0c-0.8,0.1-1.1-0.1-1.3-0.6c-0.4-1,0.8-1.2,0.8-1.9c0.2-1.2,0-2.5,0-3.7c0.1-2.6,0.4-5,0.8-7.7c0.1-0.7,0.1-1.3,0.2-2.1
				c0.2-0.9,0.2-1.8,0.3-2.7c0-0.4,0.1-0.8,0.2-1.3c0-1,0.2-2,0.4-3c0.2-1.3,0.6-2.6,0.5-4c0-0.5-0.1-1.8,0.1-2.2
				c0.4-0.3,1.2-0.2,1.7-0.2c2.5-0.1,4.6,0,7,0.2c0.7,0,3.4,0,2.9,1.2l0,0.1c-0.3,0.5-0.8,0.6-1.4,0.5c-1.8,0.2-3.1-0.1-4.7-0.3
				c-1.1,0-0.9,0.4-0.8,1.1c0.1,0.4,0.1,1,0.1,1.4c0.2,1.7,0.1,3.5-0.1,5.2c0,0.5-0.5,1.9,0,2.2c0.2,0.2,1.2-0.1,1.5-0.2
				c1-0.2,1.6-0.2,2.6,0.2C87.2,259,86.8,259.6,86,259.9z"/>
			<path class="st15" d="M113,273.7c0,0.7-0.1,1.5-0.1,2.2c0,0.8,0.1,2.4-0.3,3.1c-0.8,1.3-2.8,0.9-4,0.8c-1.6,0.1-2,0-2.1-1.6
				c0-1.1,0.2-2.4,0.4-3.5c0.1-1,0.1-1.8,0.1-2.8c0-0.5,0.1-0.9,0.1-1.4c0-2.1,0.2-4.3,0.3-6.3c0-0.7,0.1-1.4,0.1-2.1
				c0.1-1.3,0.2-2.7,0.4-3.9c0.3-1.5-0.3-1.4-0.6-0.1c-0.2,0.8-0.3,1.6-0.7,2.4c-0.4,0.7-0.5,1.1-0.6,1.9c-0.2,0.8-0.6,1.5-0.9,2.3
				c-0.2,0.5-0.4,0.9-0.6,1.4c-0.7,1.2-1.4,3-3.3,2.4c-0.7-0.3-0.7-0.8-0.8-1.5c-0.2-1.2-0.2-2.6-0.4-3.8c-0.3-2-1-3.8-1.4-5.9
				c-0.2-1.4-0.4-2.6-1-3.8c-0.4,2,0.1,5.1,0.1,7.3c0,1.1-0.1,1.8-0.3,2.8c-0.2,0.8,0,1.7-0.1,2.5c-0.1,1.7-0.3,3.4-0.5,5.1
				c-0.2,2.2-0.5,3.7-0.3,5.9c0.1,1.3-0.1,1.2-1.2,1.6c-0.5,0.1-1.4,0.2-2,0.3c-0.6,0.1-1,0.2-1.6,0.4c-0.7,0.2-1.1-0.2-1.3-0.9
				c-0.2-0.7,0-1.6,0-2.4c-0.1-1.1,0-1.4,0.2-2.5c0.2-1,0.2-2.2,0.4-3.2l0.5-3.9c0.2-1.5,0.3-2.8,0.7-4.4c0.2-1.2,0.3-2.5,0.5-3.7
				c0.3-1.6,0.5-3,0.8-4.6c0.4-2,0.8-3.9,1.2-5.9c0.2-0.7,0.4-1.5,1.2-1.5c0.5,0,1.8,0.2,2.3,0.6c0.4,0.4,1.1,1.6,1.4,2.1
				c0,0.2,0.1,0.4,0.2,0.5c0.2,0.7,0.5,1.3,0.7,2c0.4,1.4,1,2.7,1.5,4.2c0.1,0.6,0.3,1.1,0.4,1.7c0.1,0.7,0.9,3.9,1.3,4.2
				c0.3,0.2,1.4-3.8,1.6-4.3c0.5-1.3,1-2.4,1.6-3.6c1-1.7,1.7-3.5,2.6-5.3c0.5-1,0.6-1.3,1.9-1.1c0.4,0.1,1.1,0.2,1.3,0.7
				c0.6,1.2,0.6,3.4,0.6,4.8c0,2.8,0.1,5.3,0.2,8c0,2.3-0.1,4.6-0.1,6.9L113,273.7z"/>
			<path class="st15" d="M133.1,272.2c-0.5,1.2-1,2-1.7,3c-1,1.3-1.5,2.8-3.1,3.6c-0.8,0.4-1.6,0.7-2.2,0.9c-0.1,0-0.4,1-0.4,1.1
				c-0.6,0.8-2.2,0.9-2.9-0.3l-0.2-1.1c-1.3-0.5-1.7-0.6-2.7-1.5c-3.3-3-4.3-8.7-4.2-12.8c0.1-3.7,1.3-6.7,2.7-10.2
				c0.4-1,1.6-3.4,2.3-4.3c0.4-0.5,0.9-1,1.4-1.5c1.4-1.5,4.6-3.5,6.7-2.6c1.7,0.7,2.9,1.9,3.6,3.4c0.5,1.1,0.9,1.4,1.3,2.7
				c0.7,2.7,0.9,4.7,0.9,7.5c0,0.3,0,0.6,0,0.9C134.7,264.6,134.4,269.1,133.1,272.2z"/>
			<path class="st15" d="M138.2,279.3c-0.9-0.3-0.7-1.2-0.8-2c-0.1-1.3,0.1-2.6,0.2-3.8l0.1-3.4c0-1.4,0.2-3,0.2-4.4
				c0.2-2.4,0.3-4.6,0.5-6.9c0.1-1.1,0.1-1.8,0.3-2.9c0.2-0.9,0.1-1.4,0.1-2.2c0.1-1.2,0.4-2.3,0.6-3.4c0-1.3-0.3-1.7,1.3-1.8
				c0.4,0,2.2,0.1,2.5,0.2c0.9,0.3,1.4,1.2,1.7,2c0.5,0.9,0.9,2.3,1.3,3.4c0.7,2.2,1.3,4.3,2,6.6l2.1,7.3c0.8,2.7,1,1.9,1.2-0.5
				c0.1-2.3,0.4-4.6,0.5-6.9c0.1-3.1,0-5.2,0.6-8.5c0.2-0.9,0.3-1.7,0.4-2.6c0.1-0.3,0.1-1.3,0.4-1.6c0.3-0.2,1.1,0,1.5,0
				c2.4,0.3,2.3,0.6,2,3c-0.7,4.6-1.5,17.2-1.6,22.2c-0.1,1.1,0,2,0,3.1c0,0.3,0,0.6,0,1c-0.2,1.6-0.5,1-1.7,1.7
				c-0.7,0.5-1,0.5-1.8,0.8c-0.8,0.3-1.1,0.1-1.5-0.6c-0.4-0.9-0.7-2.4-1-3.4c-0.6-1.9-1.2-3.8-1.7-5.7c-0.9-2.8-1.7-5.5-2.4-8.5
				c-1.1-4.3-0.9-0.4-0.9,1.2c-0.1,1.8-0.1,3.5-0.1,5.3c-0.1,1.2,0,2.1-0.1,3.3c-0.1,0.9,0,1.7-0.2,2.6c-0.2,1.4-0.1,2.5,0.1,3.9
				c0.1,1.3-0.7,1.4-1.8,1.5c-0.7,0.1-1.3,0-2,0.1C139.4,279.4,139,279.5,138.2,279.3z"/>
		</g>
		<g>
			<ellipse class="st16" cx="124" cy="253.4" rx="1" ry="1"/>
			<ellipse class="st16" cx="123.5" cy="258.1" rx="1" ry="1"/>
			<ellipse class="st16" cx="125.5" cy="262.1" rx="1" ry="1"/>
			<ellipse class="st16" cx="128.6" cy="266" rx="1" ry="1"/>
			<ellipse class="st16" cx="123" cy="268.7" rx="1" ry="1"/>
			<ellipse class="st16" cx="128.2" cy="271.6" rx="1" ry="1"/>
			<ellipse class="st16" cx="123.4" cy="274.5" rx="1" ry="1"/>
			<ellipse class="st16" cx="120.6" cy="263.3" rx="1" ry="1"/>
			<ellipse class="st16" cx="129.9" cy="258.9" rx="1" ry="1"/>
			<ellipse class="st16" cx="128.8" cy="253" rx="1" ry="1"/>
		</g>
		<g>
			<g>
				<path class="st14" d="M131.7,244.3c0.4,0.5-0.4,0.9-0.8,1.2c-0.2,0.1-0.9,1-1.1,1.1c-0.2,0.2-0.4,0.2-0.6,0.4
					c-0.3,0.3-0.6,0.6-0.8,0.9c-0.2,0.3-0.5,0.3-0.8,0.1c-0.3-0.1-0.4-0.4-0.6-0.6c-0.2-0.4-0.1-0.6,0.1-1c0.2-0.3,0.4-0.6,0.6-0.8
					c0.2-0.3,1-1.2,1.2-1.5c0.2-0.3,0.5-0.5,0.8-0.8c0.5-0.4,0.7-0.1,1.1,0.2c0,0,0.1,0.1,0.1,0.1
					C131.2,243.8,131.5,244.1,131.7,244.3z"/>
			</g>
		</g>
	</g>
	<path class="st17" d="M100,159.8c0,4.9,3.6,9,8.3,9.8c0.6,0.1,1.1,0.2,1.7,0.2c0.6,0,1.2-0.1,1.7-0.2c4.7-0.8,8.3-4.9,8.3-9.8H100z
		"/>
</g>
</svg>
